<svg width="1584" height="396" viewBox="0 0 1584 396" fill="none" xmlns="http://www.w3.org/2000/svg">
<rect width="1584" height="396" fill="#F5F5F5"/>
<g id="Awesome banner" clip-path="url(#clip0_0_1)">
<rect width="1584" height="396" fill="url(#paint0_linear_0_1)"/>
<ellipse id="Ellipse 2" cx="323" cy="64" rx="285" ry="288" fill="url(#paint1_linear_0_1)" fill-opacity="0.1"/>
<g id="copyright">
<path d="M75.95 334.52L72.30 334.52L72.30 311.16L77.20 311.16L83.70 330.04Q83.60 329.02 83.50 327.62Q83.41 326.23 83.33 324.79Q83.25 323.35 83.25 322.23L83.25 311.16L86.90 311.16L86.90 334.52L82 334.52L75.57 315.64Q75.63 316.57 75.73 317.88Q75.82 319.19 75.89 320.57Q75.95 321.94 75.95 323.10L75.95 334.52M98.80 334.84Q96.46 334.84 94.67 333.96Q92.88 333.08 91.89 331.53Q90.90 329.98 90.90 327.93Q90.90 325.78 92.13 324.18Q93.36 322.58 95.34 322.17L95.34 322.10Q93.65 321.75 92.61 320.38Q91.57 319 91.57 317.11Q91.57 315.26 92.48 313.85Q93.39 312.44 95.02 311.64Q96.66 310.84 98.80 310.84Q100.94 310.84 102.59 311.64Q104.24 312.44 105.15 313.85Q106.06 315.26 106.06 317.11Q106.06 319 105.01 320.38Q103.95 321.75 102.26 322.10L102.26 322.17Q104.24 322.58 105.47 324.18Q106.70 325.78 106.70 327.93Q106.70 329.98 105.71 331.53Q104.72 333.08 102.93 333.96Q101.14 334.84 98.80 334.84M98.80 320.73Q100.30 320.73 101.23 319.82Q102.16 318.90 102.16 317.46Q102.16 315.99 101.23 315.08Q100.30 314.17 98.80 314.17Q97.30 314.17 96.37 315.08Q95.44 315.99 95.44 317.46Q95.44 318.90 96.37 319.82Q97.30 320.73 98.80 320.73M98.80 331.45Q100.56 331.45 101.68 330.42Q102.80 329.40 102.80 327.74Q102.80 326.04 101.68 325Q100.56 323.96 98.80 323.96Q97.04 323.96 95.92 325Q94.80 326.04 94.80 327.74Q94.80 329.40 95.92 330.42Q97.04 331.45 98.80 331.45M114.35 334.52L110.70 334.52L110.70 311.16L115.60 311.16L122.10 330.04Q122 329.02 121.90 327.62Q121.81 326.23 121.73 324.79Q121.65 323.35 121.65 322.23L121.65 311.16L125.30 311.16L125.30 334.52L120.40 334.52L113.97 315.64Q114.03 316.57 114.13 317.88Q114.22 319.19 114.29 320.57Q114.35 321.94 114.35 323.10" fill="white" fill-opacity="0.9"/>
<path d="M161.48 325.24L151.24 325.24L151.24 322.68L161.48 322.68" fill="white" fill-opacity="0.9"/>
<path d="M195.02 334.84Q191.82 334.84 189.96 333.05Q188.11 331.26 188.11 328.12L188.11 317.56Q188.11 314.42 189.96 312.63Q191.82 310.84 195.02 310.84Q198.15 310.84 200.01 312.65Q201.87 314.46 201.87 317.56L198.99 317.56Q198.99 315.58 197.95 314.50Q196.91 313.43 195.02 313.43Q193.13 313.43 192.06 314.50Q190.99 315.58 190.99 317.56L190.99 328.12Q190.99 330.10 192.06 331.18Q193.13 332.25 195.02 332.25Q196.91 332.25 197.95 331.18Q198.99 330.10 198.99 328.12L201.87 328.12Q201.87 331.22 200.01 333.03Q198.15 334.84 195.02 334.84" fill="white" fill-opacity="0.9"/>
<path d="M213.96 334.84Q210.83 334.84 209 333.02Q207.18 331.19 207.18 327.80L207.18 317.88Q207.18 314.49 209 312.66Q210.83 310.84 213.96 310.84Q217.10 310.84 218.92 312.66Q220.75 314.49 220.75 317.85L220.75 327.80Q220.75 331.19 218.92 333.02Q217.10 334.84 213.96 334.84M213.96 332.25Q215.85 332.25 216.86 331.18Q217.87 330.10 217.87 328.12L217.87 317.56Q217.87 315.58 216.86 314.50Q215.85 313.43 213.96 313.43Q212.11 313.43 211.08 314.50Q210.06 315.58 210.06 317.56L210.06 328.12Q210.06 330.10 211.08 331.18Q212.11 332.25 213.96 332.25" fill="white" fill-opacity="0.9"/>
<path d="M228.65 334.52L225.87 334.52L225.87 311.16L230.12 311.16L233.10 321.27L236.20 311.16L240.46 311.16L240.46 334.52L237.67 334.52L237.67 323.48Q237.67 321.91 237.72 319.88Q237.77 317.85 237.87 315.77Q237.96 313.69 238.09 312.02L234.31 324.09L231.82 324.09L228.20 312.31Q228.46 314.68 228.55 317.50Q228.65 320.31 228.65 323.48" fill="white" fill-opacity="0.9"/>
<path d="M247.85 334.52L245.07 334.52L245.07 311.16L249.32 311.16L252.30 321.27L255.40 311.16L259.66 311.16L259.66 334.52L256.87 334.52L256.87 323.48Q256.87 321.91 256.92 319.88Q256.97 317.85 257.07 315.77Q257.16 313.69 257.29 312.02L253.51 324.09L251.02 324.09L247.40 312.31Q247.66 314.68 247.75 317.50Q247.85 320.31 247.85 323.48" fill="white" fill-opacity="0.9"/>
<path d="M271.56 334.84Q268.30 334.84 266.57 333.03Q264.84 331.22 264.84 328.12L264.84 311.16L267.72 311.16L267.72 328.12Q267.72 330.04 268.67 331.16Q269.61 332.28 271.56 332.28Q273.48 332.28 274.44 331.16Q275.40 330.04 275.40 328.12L275.40 311.16L278.28 311.16L278.28 328.12Q278.28 331.26 276.57 333.05Q274.86 334.84 271.56 334.84" fill="white" fill-opacity="0.9"/>
<path d="M286.83 334.52L284.04 334.52L284.04 311.16L287.88 311.16L295.02 331.16Q294.95 330.36 294.87 329.19Q294.79 328.02 294.75 326.73Q294.70 325.43 294.70 324.28L294.70 311.16L297.48 311.16L297.48 334.52L293.64 334.52L286.54 314.52Q286.60 315.29 286.67 316.46Q286.73 317.62 286.78 318.92Q286.83 320.22 286.83 321.40" fill="white" fill-opacity="0.9"/>
<path d="M316.20 334.52L303.72 334.52L303.72 331.90L308.49 331.90L308.49 313.78L303.72 313.78L303.72 311.16L316.20 311.16L316.20 313.78L311.43 313.78L311.43 331.90L316.20 331.90" fill="white" fill-opacity="0.9"/>
<path d="M330.60 334.52L327.72 334.52L327.72 313.78L321.32 313.78L321.32 311.16L337 311.16L337 313.78L330.60 313.78" fill="white" fill-opacity="0.9"/>
<path d="M349.80 334.52L346.92 334.52L346.92 325.78L339.88 311.16L342.95 311.16L347.50 320.76Q347.88 321.56 348.11 322.12Q348.33 322.68 348.39 322.94Q348.46 322.68 348.70 322.12Q348.94 321.56 349.32 320.76L353.87 311.16L356.84 311.16L349.80 325.78" fill="white" fill-opacity="0.9"/>
<path d="M382.83 334.52L380.04 334.52L380.04 311.16L383.88 311.16L391.02 331.16Q390.95 330.36 390.87 329.19Q390.79 328.02 390.75 326.73Q390.70 325.43 390.70 324.28L390.70 311.16L393.48 311.16L393.48 334.52L389.64 334.52L382.54 314.52Q382.60 315.29 382.67 316.46Q382.73 317.62 382.78 318.92Q382.83 320.22 382.83 321.40" fill="white" fill-opacity="0.9"/>
<path d="M405.96 334.84Q402.83 334.84 401 333.02Q399.18 331.19 399.18 327.80L399.18 317.88Q399.18 314.49 401 312.66Q402.83 310.84 405.96 310.84Q409.10 310.84 410.92 312.66Q412.75 314.49 412.75 317.85L412.75 327.80Q412.75 331.19 410.92 333.02Q409.10 334.84 405.96 334.84M405.96 332.25Q407.85 332.25 408.86 331.18Q409.87 330.10 409.87 328.12L409.87 317.56Q409.87 315.58 408.86 314.50Q407.85 313.43 405.96 313.43Q404.11 313.43 403.08 314.50Q402.06 315.58 402.06 317.56L402.06 328.12Q402.06 330.10 403.08 331.18Q404.11 332.25 405.96 332.25" fill="white" fill-opacity="0.9"/>
<path d="M424.55 334.52L418.51 334.52L418.51 311.16L424.55 311.16Q426.83 311.16 428.47 312.02Q430.12 312.89 431.03 314.46Q431.95 316.02 431.95 318.17L431.95 327.48Q431.95 329.62 431.03 331.21Q430.12 332.79 428.47 333.66Q426.83 334.52 424.55 334.52M421.39 313.72L421.39 331.96L424.55 331.96Q426.67 331.96 427.87 330.78Q429.07 329.59 429.07 327.48L429.07 318.17Q429.07 316.09 427.87 314.90Q426.67 313.72 424.55 313.72" fill="white" fill-opacity="0.9"/>
<path d="M451.40 334.52L437.96 334.52L437.96 311.16L451.40 311.16L451.40 313.78L440.81 313.78L440.81 321.02L450.28 321.02L450.28 323.58L440.81 323.58L440.81 331.90L451.40 331.90" fill="white" fill-opacity="0.9"/>
<path d="M463.69 334.84Q460.30 334.84 458.28 333.05Q456.27 331.26 456.27 328.12L459.15 328.12Q459.15 330.07 460.39 331.18Q461.64 332.28 463.69 332.28Q465.67 332.28 466.86 331.13Q468.04 329.98 468.04 328.12Q468.04 326.71 467.29 325.67Q466.54 324.63 465.13 324.25L461.58 323.26Q459.37 322.62 458.11 320.97Q456.84 319.32 456.84 317.08Q456.84 315.22 457.67 313.82Q458.51 312.41 460.01 311.62Q461.51 310.84 463.47 310.84Q465.45 310.84 466.97 311.62Q468.49 312.41 469.35 313.80Q470.22 315.19 470.22 317.02L467.34 317.02Q467.34 315.42 466.25 314.41Q465.16 313.40 463.47 313.40Q461.77 313.40 460.71 314.41Q459.66 315.42 459.66 317.02Q459.66 318.30 460.35 319.21Q461.03 320.12 462.28 320.47L465.93 321.50Q468.27 322.14 469.56 323.91Q470.86 325.69 470.86 328.12Q470.86 331.19 468.91 333.02Q466.95 334.84 463.69 334.84" fill="white" fill-opacity="0.9"/>
</g>
<path d="M78.28 197.64L76.12 197.64L76.12 182.09L71.32 182.09L71.32 180.12L83.08 180.12L83.08 182.09L78.28 182.09" fill="white" fill-opacity="0.7"/>
<path d="M90.45 197.88Q88.41 197.88 87.21 196.74Q86.01 195.60 86.01 193.75Q86.01 192.53 86.56 191.62Q87.11 190.70 88.10 190.19Q89.08 189.67 90.35 189.67L94.43 189.67L94.43 188.64Q94.43 186.07 91.62 186.07Q90.38 186.07 89.61 186.53Q88.84 186.98 88.79 187.80L86.63 187.80Q86.75 186.24 88.08 185.22Q89.42 184.20 91.62 184.20Q94.02 184.20 95.31 185.35Q96.59 186.50 96.59 188.57L96.59 197.64L94.46 197.64L94.46 195.24L94.41 195.24Q94.22 196.46 93.18 197.17Q92.15 197.88 90.45 197.88M90.98 196.06Q92.56 196.06 93.50 195.29Q94.43 194.52 94.43 193.20L94.43 191.35L90.59 191.35Q89.54 191.35 88.88 191.99Q88.22 192.62 88.22 193.68Q88.22 194.78 88.95 195.42Q89.68 196.06 90.98 196.06" fill="white" fill-opacity="0.7"/>
<path d="M102.26 197.64L100.24 197.64L100.24 184.44L102.11 184.44L102.11 186.19L102.16 186.19Q102.28 185.30 102.87 184.75Q103.46 184.20 104.37 184.20Q105.23 184.20 105.83 184.70Q106.43 185.21 106.70 186.07L106.72 186.07Q106.89 185.21 107.48 184.70Q108.06 184.20 108.98 184.20Q110.25 184.20 111 185.15Q111.76 186.10 111.76 187.61L111.76 197.64L109.74 197.64L109.74 187.58Q109.74 186.79 109.36 186.32Q108.98 185.86 108.30 185.86Q107.66 185.86 107.27 186.31Q106.89 186.77 106.89 187.56L106.89 197.64L105.11 197.64L105.11 187.58Q105.11 186.79 104.73 186.32Q104.34 185.86 103.70 185.86Q103.02 185.86 102.64 186.31Q102.26 186.77 102.26 187.56" fill="white" fill-opacity="0.7"/>
<path d="M126.52 197.64L115.24 197.64L115.24 195.67L119.92 195.67L119.92 186.41L115.72 186.41L115.72 184.44L122.08 184.44L122.08 195.67L126.52 195.67L126.52 197.64M120.76 182.06Q119.97 182.06 119.51 181.66Q119.06 181.25 119.06 180.55Q119.06 179.83 119.51 179.41Q119.97 178.99 120.76 178.99Q121.55 178.99 122.01 179.41Q122.46 179.83 122.46 180.55Q122.46 181.25 122.01 181.66Q121.55 182.06 120.76 182.06" fill="white" fill-opacity="0.7"/>
<path d="M140.80 197.64L136.72 197.64Q134.97 197.64 133.92 196.62Q132.88 195.60 132.88 193.92L132.88 182.09L128.32 182.09L128.32 180.12L135.04 180.12L135.04 193.92Q135.04 194.74 135.50 195.20Q135.95 195.67 136.72 195.67L140.80 195.67" fill="white" fill-opacity="0.7"/>
<path d="M160.65 197.64L158.56 197.64L158.56 180.12L161.44 180.12L166.79 195.12Q166.74 194.52 166.68 193.64Q166.62 192.77 166.59 191.80Q166.55 190.82 166.55 189.96L166.55 180.12L168.64 180.12L168.64 197.64L165.76 197.64L160.43 182.64Q160.48 183.22 160.53 184.09Q160.58 184.97 160.61 185.94Q160.65 186.91 160.65 187.80" fill="white" fill-opacity="0.7"/>
<path d="M176.85 197.88Q174.81 197.88 173.61 196.74Q172.41 195.60 172.41 193.75Q172.41 192.53 172.96 191.62Q173.51 190.70 174.50 190.19Q175.48 189.67 176.75 189.67L180.83 189.67L180.83 188.64Q180.83 186.07 178.02 186.07Q176.78 186.07 176.01 186.53Q175.24 186.98 175.19 187.80L173.03 187.80Q173.15 186.24 174.48 185.22Q175.82 184.20 178.02 184.20Q180.42 184.20 181.71 185.35Q182.99 186.50 182.99 188.57L182.99 197.64L180.86 197.64L180.86 195.24L180.81 195.24Q180.62 196.46 179.58 197.17Q178.55 197.88 176.85 197.88M177.38 196.06Q178.96 196.06 179.90 195.29Q180.83 194.52 180.83 193.20L180.83 191.35L176.99 191.35Q175.94 191.35 175.28 191.99Q174.62 192.62 174.62 193.68Q174.62 194.78 175.35 195.42Q176.08 196.06 177.38 196.06" fill="white" fill-opacity="0.7"/>
<path d="M191.63 197.88Q189.66 197.88 188.48 196.56Q187.29 195.24 187.29 192.98L187.29 189.12Q187.29 186.84 188.46 185.52Q189.64 184.20 191.63 184.20Q193.12 184.20 194.09 184.94Q195.06 185.69 195.26 186.96L195.28 186.96L195.23 183.96L195.23 180.12L197.39 180.12L197.39 197.64L195.23 197.64L195.23 195.12L195.21 195.12Q195.04 196.42 194.08 197.15Q193.12 197.88 191.63 197.88M192.35 196.01Q193.70 196.01 194.46 195.17Q195.23 194.33 195.23 192.84L195.23 189.24Q195.23 187.75 194.46 186.91Q193.70 186.07 192.35 186.07Q190.98 186.07 190.22 186.78Q189.45 187.49 189.45 189.12L189.45 192.96Q189.45 194.57 190.22 195.29Q190.98 196.01 192.35 196.01" fill="white" fill-opacity="0.7"/>
<path d="M206.78 197.88Q204.50 197.88 203.13 196.52Q201.76 195.17 201.76 192.84L201.76 184.44L203.92 184.44L203.92 192.84Q203.92 194.28 204.69 195.13Q205.46 195.98 206.78 195.98Q208.12 195.98 208.90 195.13Q209.68 194.28 209.68 192.84L209.68 184.44L211.84 184.44L211.84 192.84Q211.84 195.17 210.45 196.52Q209.06 197.88 206.78 197.88" fill="white" fill-opacity="0.7"/>
<path d="M235.14 197.64L230.61 197.64L230.61 180.12L235.14 180.12Q236.85 180.12 238.08 180.77Q239.32 181.42 240 182.59Q240.69 183.77 240.69 185.38L240.69 192.36Q240.69 193.97 240 195.16Q239.32 196.34 238.08 196.99Q236.85 197.64 235.14 197.64M232.77 182.04L232.77 195.72L235.14 195.72Q236.73 195.72 237.63 194.83Q238.53 193.94 238.53 192.36L238.53 185.38Q238.53 183.82 237.63 182.93Q236.73 182.04 235.14 182.04" fill="white" fill-opacity="0.7"/>
<path d="M250.10 197.88Q247.70 197.88 246.30 196.54Q244.91 195.19 244.91 192.84L244.91 184.92Q244.91 182.57 246.30 181.22Q247.70 179.88 250.10 179.88Q252.45 179.88 253.84 181.24Q255.23 182.59 255.23 184.92L253.07 184.92Q253.07 183.43 252.29 182.63Q251.51 181.82 250.10 181.82Q248.68 181.82 247.88 182.62Q247.07 183.41 247.07 184.90L247.07 192.84Q247.07 194.33 247.88 195.14Q248.68 195.96 250.10 195.96Q251.51 195.96 252.29 195.14Q253.07 194.33 253.07 192.84L253.07 190.44L249.52 190.44L249.52 188.47L255.23 188.47L255.23 192.84Q255.23 195.17 253.84 196.52Q252.45 197.88 250.10 197.88" fill="white" fill-opacity="0.7"/>
<path d="M269.68 197.64L259.60 197.64L259.60 180.12L269.68 180.12L269.68 182.09L261.74 182.09L261.74 187.51L268.84 187.51L268.84 189.43L261.74 189.43L261.74 195.67L269.68 195.67" fill="white" fill-opacity="0.7"/>
<path d="M299.32 197.64L288.04 197.64L288.04 195.67L292.72 195.67L292.72 186.41L288.52 186.41L288.52 184.44L294.88 184.44L294.88 195.67L299.32 195.67L299.32 197.64M293.56 182.06Q292.77 182.06 292.31 181.66Q291.86 181.25 291.86 180.55Q291.86 179.83 292.31 179.41Q292.77 178.99 293.56 178.99Q294.35 178.99 294.81 179.41Q295.26 179.83 295.26 180.55Q295.26 181.25 294.81 181.66Q294.35 182.06 293.56 182.06" fill="white" fill-opacity="0.7"/>
<path d="M308.13 197.83L307.07 197.83Q304.86 197.83 303.65 196.84Q302.44 195.84 302.44 194.02L304.60 194.02Q304.60 194.93 305.25 195.44Q305.90 195.96 307.07 195.96L308.13 195.96Q309.33 195.96 309.99 195.43Q310.65 194.90 310.65 193.94Q310.65 192.24 309.09 192.02L305.44 191.50Q304.10 191.30 303.35 190.38Q302.61 189.46 302.61 187.94Q302.61 186.22 303.80 185.23Q304.98 184.25 307.07 184.25L308.13 184.25Q310.05 184.25 311.26 185.20Q312.47 186.14 312.57 187.68L310.38 187.68Q310.34 186.98 309.72 186.53Q309.11 186.07 308.13 186.07L307.07 186.07Q305.97 186.07 305.34 186.58Q304.72 187.08 304.72 187.94Q304.72 189.34 305.99 189.53L309.40 190.01Q312.76 190.49 312.76 193.94Q312.76 195.79 311.55 196.81Q310.34 197.83 308.13 197.83" fill="white" fill-opacity="0.7"/>
<path d="M322.53 197.83L321.47 197.83Q319.26 197.83 318.05 196.84Q316.84 195.84 316.84 194.02L319 194.02Q319 194.93 319.65 195.44Q320.30 195.96 321.47 195.96L322.53 195.96Q323.73 195.96 324.39 195.43Q325.05 194.90 325.05 193.94Q325.05 192.24 323.49 192.02L319.84 191.50Q318.50 191.30 317.75 190.38Q317.01 189.46 317.01 187.94Q317.01 186.22 318.20 185.23Q319.38 184.25 321.47 184.25L322.53 184.25Q324.45 184.25 325.66 185.20Q326.87 186.14 326.97 187.68L324.78 187.68Q324.74 186.98 324.12 186.53Q323.51 186.07 322.53 186.07L321.47 186.07Q320.37 186.07 319.74 186.58Q319.12 187.08 319.12 187.94Q319.12 189.34 320.39 189.53L323.80 190.01Q327.16 190.49 327.16 193.94Q327.16 195.79 325.95 196.81Q324.74 197.83 322.53 197.83" fill="white" fill-opacity="0.7"/>
<path d="M336.38 197.88Q334.10 197.88 332.73 196.52Q331.36 195.17 331.36 192.84L331.36 184.44L333.52 184.44L333.52 192.84Q333.52 194.28 334.29 195.13Q335.06 195.98 336.38 195.98Q337.72 195.98 338.50 195.13Q339.28 194.28 339.28 192.84L339.28 184.44L341.44 184.44L341.44 192.84Q341.44 195.17 340.05 196.52Q338.66 197.88 336.38 197.88" fill="white" fill-opacity="0.7"/>
<path d="M350.80 197.88Q348.47 197.88 347.04 196.48Q345.62 195.07 345.62 192.60L345.62 189.48Q345.62 187.01 347.04 185.60Q348.47 184.20 350.80 184.20Q352.36 184.20 353.52 184.82Q354.69 185.45 355.34 186.58Q355.98 187.70 355.98 189.24L355.98 191.59L347.73 191.59L347.73 192.84Q347.73 194.30 348.57 195.16Q349.41 196.01 350.80 196.01Q352 196.01 352.78 195.54Q353.56 195.07 353.73 194.28L355.89 194.28Q355.67 195.94 354.28 196.91Q352.89 197.88 350.80 197.88M347.73 189.24L347.73 189.91L353.87 189.91L353.87 189.24Q353.87 187.68 353.07 186.83Q352.26 185.98 350.80 185.98Q349.34 185.98 348.53 186.83Q347.73 187.68 347.73 189.24" fill="white" fill-opacity="0.7"/>
<path d="M365.73 197.83L364.67 197.83Q362.46 197.83 361.25 196.84Q360.04 195.84 360.04 194.02L362.20 194.02Q362.20 194.93 362.85 195.44Q363.50 195.96 364.67 195.96L365.73 195.96Q366.93 195.96 367.59 195.43Q368.25 194.90 368.25 193.94Q368.25 192.24 366.69 192.02L363.04 191.50Q361.70 191.30 360.95 190.38Q360.21 189.46 360.21 187.94Q360.21 186.22 361.40 185.23Q362.58 184.25 364.67 184.25L365.73 184.25Q367.65 184.25 368.86 185.20Q370.07 186.14 370.17 187.68L367.98 187.68Q367.94 186.98 367.32 186.53Q366.71 186.07 365.73 186.07L364.67 186.07Q363.57 186.07 362.94 186.58Q362.32 187.08 362.32 187.94Q362.32 189.34 363.59 189.53L367 190.01Q370.36 190.49 370.36 193.94Q370.36 195.79 369.15 196.81Q367.94 197.83 365.73 197.83" fill="white" fill-opacity="0.7"/>
<path d="M394.19 197.88Q391.79 197.88 390.40 196.54Q389.01 195.19 389.01 192.84L389.01 184.92Q389.01 182.57 390.40 181.22Q391.79 179.88 394.19 179.88Q396.54 179.88 397.94 181.24Q399.33 182.59 399.33 184.92L397.17 184.92Q397.17 183.43 396.39 182.63Q395.61 181.82 394.19 181.82Q392.78 181.82 391.97 182.63Q391.17 183.43 391.17 184.92L391.17 192.84Q391.17 194.33 391.97 195.13Q392.78 195.94 394.19 195.94Q395.61 195.94 396.39 195.13Q397.17 194.33 397.17 192.84L399.33 192.84Q399.33 195.17 397.94 196.52Q396.54 197.88 394.19 197.88" fill="white" fill-opacity="0.7"/>
<path d="M414.40 197.64L410.32 197.64Q408.57 197.64 407.52 196.62Q406.48 195.60 406.48 193.92L406.48 182.09L401.92 182.09L401.92 180.12L408.64 180.12L408.64 193.92Q408.64 194.74 409.10 195.20Q409.55 195.67 410.32 195.67L414.40 195.67" fill="white" fill-opacity="0.7"/>
<path d="M421.65 197.88Q419.61 197.88 418.41 196.74Q417.21 195.60 417.21 193.75Q417.21 192.53 417.76 191.62Q418.31 190.70 419.30 190.19Q420.28 189.67 421.55 189.67L425.63 189.67L425.63 188.64Q425.63 186.07 422.82 186.07Q421.58 186.07 420.81 186.53Q420.04 186.98 419.99 187.80L417.83 187.80Q417.95 186.24 419.28 185.22Q420.62 184.20 422.82 184.20Q425.22 184.20 426.51 185.35Q427.79 186.50 427.79 188.57L427.79 197.64L425.66 197.64L425.66 195.24L425.61 195.24Q425.42 196.46 424.38 197.17Q423.35 197.88 421.65 197.88M422.18 196.06Q423.76 196.06 424.70 195.29Q425.63 194.52 425.63 193.20L425.63 191.35L421.79 191.35Q420.74 191.35 420.08 191.99Q419.42 192.62 419.42 193.68Q419.42 194.78 420.15 195.42Q420.88 196.06 422.18 196.06" fill="white" fill-opacity="0.7"/>
<path d="M437.73 197.83L436.67 197.83Q434.46 197.83 433.25 196.84Q432.04 195.84 432.04 194.02L434.20 194.02Q434.20 194.93 434.85 195.44Q435.50 195.96 436.67 195.96L437.73 195.96Q438.93 195.96 439.59 195.43Q440.25 194.90 440.25 193.94Q440.25 192.24 438.69 192.02L435.04 191.50Q433.70 191.30 432.95 190.38Q432.21 189.46 432.21 187.94Q432.21 186.22 433.40 185.23Q434.58 184.25 436.67 184.25L437.73 184.25Q439.65 184.25 440.86 185.20Q442.07 186.14 442.17 187.68L439.98 187.68Q439.94 186.98 439.32 186.53Q438.71 186.07 437.73 186.07L436.67 186.07Q435.57 186.07 434.94 186.58Q434.32 187.08 434.32 187.94Q434.32 189.34 435.59 189.53L439 190.01Q442.36 190.49 442.36 193.94Q442.36 195.79 441.15 196.81Q439.94 197.83 437.73 197.83" fill="white" fill-opacity="0.7"/>
<path d="M452.13 197.83L451.07 197.83Q448.86 197.83 447.65 196.84Q446.44 195.84 446.44 194.02L448.60 194.02Q448.60 194.93 449.25 195.44Q449.90 195.96 451.07 195.96L452.13 195.96Q453.33 195.96 453.99 195.43Q454.65 194.90 454.65 193.94Q454.65 192.24 453.09 192.02L449.44 191.50Q448.10 191.30 447.35 190.38Q446.61 189.46 446.61 187.94Q446.61 186.22 447.80 185.23Q448.98 184.25 451.07 184.25L452.13 184.25Q454.05 184.25 455.26 185.20Q456.47 186.14 456.57 187.68L454.38 187.68Q454.34 186.98 453.72 186.53Q453.11 186.07 452.13 186.07L451.07 186.07Q449.97 186.07 449.34 186.58Q448.72 187.08 448.72 187.94Q448.72 189.34 449.99 189.53L453.40 190.01Q456.76 190.49 456.76 193.94Q456.76 195.79 455.55 196.81Q454.34 197.83 452.13 197.83" fill="white" fill-opacity="0.7"/>
<path d="M476.56 197.64L474.16 197.64L479.20 188.76L474.42 180.12L476.92 180.12L479.63 185.30Q479.85 185.71 480.08 186.18Q480.30 186.65 480.45 186.91Q480.57 186.65 480.80 186.18Q481.02 185.71 481.24 185.30L484 180.12L486.38 180.12L481.60 188.62L486.64 197.64L484.17 197.64L481.17 192.07Q480.95 191.66 480.72 191.20Q480.50 190.73 480.38 190.44Q480.26 190.73 480.03 191.18Q479.80 191.64 479.58 192.05" fill="white" fill-opacity="0.7"/>
<path d="M505.46 197.64L503.44 197.64L503.44 184.44L505.31 184.44L505.31 186.19L505.36 186.19Q505.48 185.30 506.07 184.75Q506.66 184.20 507.57 184.20Q508.43 184.20 509.03 184.70Q509.63 185.21 509.90 186.07L509.92 186.07Q510.09 185.21 510.68 184.70Q511.26 184.20 512.18 184.20Q513.45 184.20 514.20 185.15Q514.96 186.10 514.96 187.61L514.96 197.64L512.94 197.64L512.94 187.58Q512.94 186.79 512.56 186.32Q512.18 185.86 511.50 185.86Q510.86 185.86 510.47 186.31Q510.09 186.77 510.09 187.56L510.09 197.64L508.31 197.64L508.31 187.58Q508.31 186.79 507.93 186.32Q507.54 185.86 506.90 185.86Q506.22 185.86 505.84 186.31Q505.46 186.77 505.46 187.56" fill="white" fill-opacity="0.7"/>
<path d="M522.45 197.88Q520.41 197.88 519.21 196.74Q518.01 195.60 518.01 193.75Q518.01 192.53 518.56 191.62Q519.11 190.70 520.10 190.19Q521.08 189.67 522.35 189.67L526.43 189.67L526.43 188.64Q526.43 186.07 523.62 186.07Q522.38 186.07 521.61 186.53Q520.84 186.98 520.79 187.80L518.63 187.80Q518.75 186.24 520.08 185.22Q521.42 184.20 523.62 184.20Q526.02 184.20 527.31 185.35Q528.59 186.50 528.59 188.57L528.59 197.64L526.46 197.64L526.46 195.24L526.41 195.24Q526.22 196.46 525.18 197.17Q524.15 197.88 522.45 197.88M522.98 196.06Q524.56 196.06 525.50 195.29Q526.43 194.52 526.43 193.20L526.43 191.35L522.59 191.35Q521.54 191.35 520.88 191.99Q520.22 192.62 520.22 193.68Q520.22 194.78 520.95 195.42Q521.68 196.06 522.98 196.06" fill="white" fill-opacity="0.7"/>
<path d="M535.65 197.64L533.49 197.64L533.49 184.44L535.65 184.44L535.65 186.96L535.70 186.96Q535.86 185.69 536.78 184.94Q537.69 184.20 539.22 184.20Q541.29 184.20 542.40 185.44Q543.52 186.67 543.52 188.95L543.52 190.08L541.36 190.08L541.36 188.95Q541.36 186.07 538.55 186.07Q537.14 186.07 536.39 186.89Q535.65 187.70 535.65 189.24" fill="white" fill-opacity="0.7"/>
<path d="M549.69 197.64L547.53 197.64L547.53 180.12L549.69 180.12L549.69 189.89L552.21 189.89L555.90 184.44L558.38 184.44L554.13 190.73L558.62 197.64L556.10 197.64L552.26 191.76L549.69 191.76" fill="white" fill-opacity="0.7"/>
<path d="M581.39 197.88Q578.99 197.88 577.55 196.54Q576.11 195.19 576.11 192.84L576.11 189.24Q576.11 186.89 577.55 185.54Q578.99 184.20 581.39 184.20Q583.67 184.20 585.08 185.42Q586.48 186.65 586.55 188.76L584.39 188.76Q584.32 187.49 583.53 186.80Q582.74 186.12 581.39 186.12Q579.98 186.12 579.12 186.92Q578.27 187.73 578.27 189.22L578.27 192.84Q578.27 194.33 579.12 195.14Q579.98 195.96 581.39 195.96Q582.74 195.96 583.53 195.26Q584.32 194.57 584.39 193.32L586.55 193.32Q586.48 195.43 585.08 196.66Q583.67 197.88 581.39 197.88" fill="white" fill-opacity="0.7"/>
<path d="M595.60 197.88Q593.27 197.88 591.84 196.48Q590.42 195.07 590.42 192.60L590.42 189.48Q590.42 187.01 591.84 185.60Q593.27 184.20 595.60 184.20Q597.16 184.20 598.32 184.82Q599.49 185.45 600.14 186.58Q600.78 187.70 600.78 189.24L600.78 191.59L592.53 191.59L592.53 192.84Q592.53 194.30 593.37 195.16Q594.21 196.01 595.60 196.01Q596.80 196.01 597.58 195.54Q598.36 195.07 598.53 194.28L600.69 194.28Q600.47 195.94 599.08 196.91Q597.69 197.88 595.60 197.88M592.53 189.24L592.53 189.91L598.67 189.91L598.67 189.24Q598.67 187.68 597.87 186.83Q597.06 185.98 595.60 185.98Q594.14 185.98 593.33 186.83Q592.53 187.68 592.53 189.24" fill="white" fill-opacity="0.7"/>
<path d="M607.65 197.64L605.49 197.64L605.49 184.44L607.65 184.44L607.65 186.96L607.70 186.96Q607.86 185.69 608.78 184.94Q609.69 184.20 611.22 184.20Q613.29 184.20 614.40 185.44Q615.52 186.67 615.52 188.95L615.52 190.08L613.36 190.08L613.36 188.95Q613.36 186.07 610.55 186.07Q609.14 186.07 608.39 186.89Q607.65 187.70 607.65 189.24" fill="white" fill-opacity="0.7"/>
<path d="M629.56 197.64L625.72 197.64Q624.09 197.64 623.10 196.69Q622.12 195.74 622.12 194.16L622.12 186.41L618.33 186.41L618.33 184.44L622.12 184.44L622.12 180.72L624.28 180.72L624.28 184.44L629.68 184.44L629.68 186.41L624.28 186.41L624.28 194.16Q624.28 194.83 624.68 195.25Q625.07 195.67 625.72 195.67L629.56 195.67" fill="white" fill-opacity="0.7"/>
<path d="M644.92 197.64L633.64 197.64L633.64 195.67L638.32 195.67L638.32 186.41L634.12 186.41L634.12 184.44L640.48 184.44L640.48 195.67L644.92 195.67L644.92 197.64M639.16 182.06Q638.37 182.06 637.91 181.66Q637.46 181.25 637.46 180.55Q637.46 179.83 637.91 179.41Q638.37 178.99 639.16 178.99Q639.95 178.99 640.41 179.41Q640.86 179.83 640.86 180.55Q640.86 181.25 640.41 181.66Q639.95 182.06 639.16 182.06" fill="white" fill-opacity="0.7"/>
<path d="M653.32 197.64L651.16 197.64L651.16 188.21L647.32 188.21L647.32 186.24L651.16 186.24L651.16 183.48Q651.16 181.92 652.14 181.02Q653.13 180.12 654.86 180.12L658.72 180.12L658.72 182.09L654.86 182.09Q653.32 182.09 653.32 183.48L653.32 186.24L658.72 186.24L658.72 188.21L653.32 188.21" fill="white" fill-opacity="0.7"/>
<path d="M673.72 197.64L662.44 197.64L662.44 195.67L667.12 195.67L667.12 186.41L662.92 186.41L662.92 184.44L669.28 184.44L669.28 195.67L673.72 195.67L673.72 197.64M667.96 182.06Q667.17 182.06 666.71 181.66Q666.26 181.25 666.26 180.55Q666.26 179.83 666.71 179.41Q667.17 178.99 667.96 178.99Q668.75 178.99 669.21 179.41Q669.66 179.83 669.66 180.55Q669.66 181.25 669.21 181.66Q668.75 182.06 667.96 182.06" fill="white" fill-opacity="0.7"/>
<path d="M682.19 197.88Q679.79 197.88 678.35 196.54Q676.91 195.19 676.91 192.84L676.91 189.24Q676.91 186.89 678.35 185.54Q679.79 184.20 682.19 184.20Q684.47 184.20 685.88 185.42Q687.28 186.65 687.35 188.76L685.19 188.76Q685.12 187.49 684.33 186.80Q683.54 186.12 682.19 186.12Q680.78 186.12 679.92 186.92Q679.07 187.73 679.07 189.22L679.07 192.84Q679.07 194.33 679.92 195.14Q680.78 195.96 682.19 195.96Q683.54 195.96 684.33 195.26Q685.12 194.57 685.19 193.32L687.35 193.32Q687.28 195.43 685.88 196.66Q684.47 197.88 682.19 197.88" fill="white" fill-opacity="0.7"/>
<path d="M695.25 197.88Q693.21 197.88 692.01 196.74Q690.81 195.60 690.81 193.75Q690.81 192.53 691.36 191.62Q691.91 190.70 692.90 190.19Q693.88 189.67 695.15 189.67L699.23 189.67L699.23 188.64Q699.23 186.07 696.42 186.07Q695.18 186.07 694.41 186.53Q693.64 186.98 693.59 187.80L691.43 187.80Q691.55 186.24 692.88 185.22Q694.22 184.20 696.42 184.20Q698.82 184.20 700.11 185.35Q701.39 186.50 701.39 188.57L701.39 197.64L699.26 197.64L699.26 195.24L699.21 195.24Q699.02 196.46 697.98 197.17Q696.95 197.88 695.25 197.88M695.78 196.06Q697.36 196.06 698.30 195.29Q699.23 194.52 699.23 193.20L699.23 191.35L695.39 191.35Q694.34 191.35 693.68 191.99Q693.02 192.62 693.02 193.68Q693.02 194.78 693.75 195.42Q694.48 196.06 695.78 196.06" fill="white" fill-opacity="0.7"/>
<path d="M715.96 197.64L712.12 197.64Q710.49 197.64 709.50 196.69Q708.52 195.74 708.52 194.16L708.52 186.41L704.73 186.41L704.73 184.44L708.52 184.44L708.52 180.72L710.68 180.72L710.68 184.44L716.08 184.44L716.08 186.41L710.68 186.41L710.68 194.16Q710.68 194.83 711.08 195.25Q711.47 195.67 712.12 195.67L715.96 195.67" fill="white" fill-opacity="0.7"/>
<path d="M725.20 197.88Q722.87 197.88 721.44 196.48Q720.02 195.07 720.02 192.60L720.02 189.48Q720.02 187.01 721.44 185.60Q722.87 184.20 725.20 184.20Q726.76 184.20 727.92 184.82Q729.09 185.45 729.74 186.58Q730.38 187.70 730.38 189.24L730.38 191.59L722.13 191.59L722.13 192.84Q722.13 194.30 722.97 195.16Q723.81 196.01 725.20 196.01Q726.40 196.01 727.18 195.54Q727.96 195.07 728.13 194.28L730.29 194.28Q730.07 195.94 728.68 196.91Q727.29 197.88 725.20 197.88M722.13 189.24L722.13 189.91L728.27 189.91L728.27 189.24Q728.27 187.68 727.47 186.83Q726.66 185.98 725.20 185.98Q723.74 185.98 722.93 186.83Q722.13 187.68 722.13 189.24" fill="white" fill-opacity="0.7"/>
<path d="M740.13 197.83L739.07 197.83Q736.86 197.83 735.65 196.84Q734.44 195.84 734.44 194.02L736.60 194.02Q736.60 194.93 737.25 195.44Q737.90 195.96 739.07 195.96L740.13 195.96Q741.33 195.96 741.99 195.43Q742.65 194.90 742.65 193.94Q742.65 192.24 741.09 192.02L737.44 191.50Q736.10 191.30 735.35 190.38Q734.61 189.46 734.61 187.94Q734.61 186.22 735.80 185.23Q736.98 184.25 739.07 184.25L740.13 184.25Q742.05 184.25 743.26 185.20Q744.47 186.14 744.57 187.68L742.38 187.68Q742.34 186.98 741.72 186.53Q741.11 186.07 740.13 186.07L739.07 186.07Q737.97 186.07 737.34 186.58Q736.72 187.08 736.72 187.94Q736.72 189.34 737.99 189.53L741.40 190.01Q744.76 190.49 744.76 193.94Q744.76 195.79 743.55 196.81Q742.34 197.83 740.13 197.83" fill="white" fill-opacity="0.7"/>
<path d="M769.82 197.64L766.98 197.64L762.50 184.44L764.82 184.44L767.70 193.32Q767.97 194.11 768.16 194.84Q768.35 195.58 768.45 195.98Q768.57 195.58 768.74 194.84Q768.90 194.11 769.14 193.32L772.02 184.44L774.30 184.44" fill="white" fill-opacity="0.7"/>
<path d="M788.92 197.64L777.64 197.64L777.64 195.67L782.32 195.67L782.32 186.41L778.12 186.41L778.12 184.44L784.48 184.44L784.48 195.67L788.92 195.67L788.92 197.64M783.16 182.06Q782.37 182.06 781.91 181.66Q781.46 181.25 781.46 180.55Q781.46 179.83 781.91 179.41Q782.37 178.99 783.16 178.99Q783.95 178.99 784.41 179.41Q784.86 179.83 784.86 180.55Q784.86 181.25 784.41 181.66Q783.95 182.06 783.16 182.06" fill="white" fill-opacity="0.7"/>
<path d="M796.05 197.88Q794.01 197.88 792.81 196.74Q791.61 195.60 791.61 193.75Q791.61 192.53 792.16 191.62Q792.71 190.70 793.70 190.19Q794.68 189.67 795.95 189.67L800.03 189.67L800.03 188.64Q800.03 186.07 797.22 186.07Q795.98 186.07 795.21 186.53Q794.44 186.98 794.39 187.80L792.23 187.80Q792.35 186.24 793.68 185.22Q795.02 184.20 797.22 184.20Q799.62 184.20 800.91 185.35Q802.19 186.50 802.19 188.57L802.19 197.64L800.06 197.64L800.06 195.24L800.01 195.24Q799.82 196.46 798.78 197.17Q797.75 197.88 796.05 197.88M796.58 196.06Q798.16 196.06 799.10 195.29Q800.03 194.52 800.03 193.20L800.03 191.35L796.19 191.35Q795.14 191.35 794.48 191.99Q793.82 192.62 793.82 193.68Q793.82 194.78 794.55 195.42Q795.28 196.06 796.58 196.06" fill="white" fill-opacity="0.7"/>
<path d="M825.54 197.64L821.01 197.64L821.01 180.12L825.54 180.12Q827.25 180.12 828.48 180.77Q829.72 181.42 830.40 182.59Q831.09 183.77 831.09 185.38L831.09 192.36Q831.09 193.97 830.40 195.16Q829.72 196.34 828.48 196.99Q827.25 197.64 825.54 197.64M823.17 182.04L823.17 195.72L825.54 195.72Q827.13 195.72 828.03 194.83Q828.93 193.94 828.93 192.36L828.93 185.38Q828.93 183.82 828.03 182.93Q827.13 182.04 825.54 182.04" fill="white" fill-opacity="0.7"/>
<path d="M846.52 197.64L835.24 197.64L835.24 195.67L839.92 195.67L839.92 186.41L835.72 186.41L835.72 184.44L842.08 184.44L842.08 195.67L846.52 195.67L846.52 197.64M840.76 182.06Q839.97 182.06 839.51 181.66Q839.06 181.25 839.06 180.55Q839.06 179.83 839.51 179.41Q839.97 178.99 840.76 178.99Q841.55 178.99 842.01 179.41Q842.46 179.83 842.46 180.55Q842.46 181.25 842.01 181.66Q841.55 182.06 840.76 182.06" fill="white" fill-opacity="0.7"/>
<path d="M855.16 201.96L851.46 201.96L851.46 199.99L855.18 199.99Q856.31 199.99 856.96 199.36Q857.61 198.72 857.61 197.64L857.61 196.44L857.66 194.28L857.58 194.28Q857.39 195.46 856.46 196.09Q855.52 196.73 854.10 196.73Q852.06 196.73 850.89 195.43Q849.71 194.14 849.71 191.88L849.71 189.10Q849.71 186.84 850.89 185.52Q852.06 184.20 854.10 184.20Q855.52 184.20 856.46 184.87Q857.39 185.54 857.58 186.72L857.63 186.72L857.63 184.44L859.77 184.44L859.77 197.64Q859.77 199.63 858.53 200.80Q857.30 201.96 855.16 201.96M854.75 194.93Q856.10 194.93 856.86 194.09Q857.63 193.25 857.63 191.76L857.63 189.24Q857.63 187.75 856.86 186.91Q856.10 186.07 854.75 186.07Q853.38 186.07 852.63 186.86Q851.87 187.66 851.87 189L851.87 192Q851.87 193.34 852.63 194.14Q853.38 194.93 854.75 194.93" fill="white" fill-opacity="0.7"/>
<path d="M875.32 197.64L864.04 197.64L864.04 195.67L868.72 195.67L868.72 186.41L864.52 186.41L864.52 184.44L870.88 184.44L870.88 195.67L875.32 195.67L875.32 197.64M869.56 182.06Q868.77 182.06 868.31 181.66Q867.86 181.25 867.86 180.55Q867.86 179.83 868.31 179.41Q868.77 178.99 869.56 178.99Q870.35 178.99 870.81 179.41Q871.26 179.83 871.26 180.55Q871.26 181.25 870.81 181.66Q870.35 182.06 869.56 182.06" fill="white" fill-opacity="0.7"/>
<path d="M889.60 197.64L879.52 197.64L879.52 180.12L881.68 180.12L881.68 195.67L889.60 195.67" fill="white" fill-opacity="0.7"/>
<path d="M898 197.83Q895.62 197.83 894.22 196.44Q892.82 195.05 892.82 192.55L892.82 189.53Q892.82 187.01 894.21 185.63Q895.60 184.25 898 184.25Q900.40 184.25 901.79 185.63Q903.18 187.01 903.18 189.53L903.18 192.55Q903.18 195.05 901.78 196.44Q900.38 197.83 898 197.83M898 195.91Q899.42 195.91 900.22 195.12Q901.02 194.33 901.02 192.79L901.02 189.29Q901.02 187.75 900.22 186.96Q899.42 186.17 898 186.17Q896.61 186.17 895.79 186.96Q894.98 187.75 894.98 189.29L894.98 192.79Q894.98 194.33 895.79 195.12Q896.61 195.91 898 195.91" fill="white" fill-opacity="0.7"/>
<path d="M912.59 197.88Q910.19 197.88 908.75 196.54Q907.31 195.19 907.31 192.84L907.31 189.24Q907.31 186.89 908.75 185.54Q910.19 184.20 912.59 184.20Q914.87 184.20 916.28 185.42Q917.68 186.65 917.75 188.76L915.59 188.76Q915.52 187.49 914.73 186.80Q913.94 186.12 912.59 186.12Q911.18 186.12 910.32 186.92Q909.47 187.73 909.47 189.22L909.47 192.84Q909.47 194.33 910.32 195.14Q911.18 195.96 912.59 195.96Q913.94 195.96 914.73 195.26Q915.52 194.57 915.59 193.32L917.75 193.32Q917.68 195.43 916.28 196.66Q914.87 197.88 912.59 197.88" fill="white" fill-opacity="0.7"/>
<path d="M924.09 197.64L921.93 197.64L921.93 180.12L924.09 180.12L924.09 189.89L926.61 189.89L930.30 184.44L932.78 184.44L928.53 190.73L933.02 197.64L930.50 197.64L926.66 191.76L924.09 191.76" fill="white" fill-opacity="0.7"/>
<path d="M941.20 197.88Q938.87 197.88 937.44 196.48Q936.02 195.07 936.02 192.60L936.02 189.48Q936.02 187.01 937.44 185.60Q938.87 184.20 941.20 184.20Q942.76 184.20 943.92 184.82Q945.09 185.45 945.74 186.58Q946.38 187.70 946.38 189.24L946.38 191.59L938.13 191.59L938.13 192.84Q938.13 194.30 938.97 195.16Q939.81 196.01 941.20 196.01Q942.40 196.01 943.18 195.54Q943.96 195.07 944.13 194.28L946.29 194.28Q946.07 195.94 944.68 196.91Q943.29 197.88 941.20 197.88M938.13 189.24L938.13 189.91L944.27 189.91L944.27 189.24Q944.27 187.68 943.47 186.83Q942.66 185.98 941.20 185.98Q939.74 185.98 938.93 186.83Q938.13 187.68 938.13 189.24" fill="white" fill-opacity="0.7"/>
<path d="M953.25 197.64L951.09 197.64L951.09 184.44L953.25 184.44L953.25 186.96L953.30 186.96Q953.46 185.69 954.38 184.94Q955.29 184.20 956.82 184.20Q958.89 184.20 960 185.44Q961.12 186.67 961.12 188.95L961.12 190.08L958.96 190.08L958.96 188.95Q958.96 186.07 956.15 186.07Q954.74 186.07 953.99 186.89Q953.25 187.70 953.25 189.24" fill="white" fill-opacity="0.7"/>
<path d="M984.52 197.64L982.36 197.64L982.36 188.21L978.52 188.21L978.52 186.24L982.36 186.24L982.36 183.48Q982.36 181.92 983.34 181.02Q984.33 180.12 986.06 180.12L989.92 180.12L989.92 182.09L986.06 182.09Q984.52 182.09 984.52 183.48L984.52 186.24L989.92 186.24L989.92 188.21L984.52 188.21" fill="white" fill-opacity="0.7"/>
<path d="M998.80 197.83Q996.42 197.83 995.02 196.44Q993.62 195.05 993.62 192.55L993.62 189.53Q993.62 187.01 995.01 185.63Q996.40 184.25 998.80 184.25Q1001.20 184.25 1002.59 185.63Q1003.98 187.01 1003.98 189.53L1003.98 192.55Q1003.98 195.05 1002.58 196.44Q1001.18 197.83 998.80 197.83M998.80 195.91Q1000.22 195.91 1001.02 195.12Q1001.82 194.33 1001.82 192.79L1001.82 189.29Q1001.82 187.75 1001.02 186.96Q1000.22 186.17 998.80 186.17Q997.41 186.17 996.59 186.96Q995.78 187.75 995.78 189.29L995.78 192.79Q995.78 194.33 996.59 195.12Q997.41 195.91 998.80 195.91" fill="white" fill-opacity="0.7"/>
<path d="M1010.85 197.64L1008.69 197.64L1008.69 184.44L1010.85 184.44L1010.85 186.96L1010.90 186.96Q1011.06 185.69 1011.98 184.94Q1012.89 184.20 1014.42 184.20Q1016.49 184.20 1017.60 185.44Q1018.72 186.67 1018.72 188.95L1018.72 190.08L1016.56 190.08L1016.56 188.95Q1016.56 186.07 1013.75 186.07Q1012.34 186.07 1011.59 186.89Q1010.85 187.70 1010.85 189.24" fill="white" fill-opacity="0.7"/>
<path d="M1042.53 197.83L1041.47 197.83Q1039.26 197.83 1038.05 196.84Q1036.84 195.84 1036.84 194.02L1039 194.02Q1039 194.93 1039.65 195.44Q1040.30 195.96 1041.47 195.96L1042.53 195.96Q1043.73 195.96 1044.39 195.43Q1045.05 194.90 1045.05 193.94Q1045.05 192.24 1043.49 192.02L1039.84 191.50Q1038.50 191.30 1037.75 190.38Q1037.01 189.46 1037.01 187.94Q1037.01 186.22 1038.20 185.23Q1039.38 184.25 1041.47 184.25L1042.53 184.25Q1044.45 184.25 1045.66 185.20Q1046.87 186.14 1046.97 187.68L1044.78 187.68Q1044.74 186.98 1044.12 186.53Q1043.51 186.07 1042.53 186.07L1041.47 186.07Q1040.37 186.07 1039.74 186.58Q1039.12 187.08 1039.12 187.94Q1039.12 189.34 1040.39 189.53L1043.80 190.01Q1047.16 190.49 1047.16 193.94Q1047.16 195.79 1045.95 196.81Q1044.74 197.83 1042.53 197.83" fill="white" fill-opacity="0.7"/>
<path d="M1061.56 197.64L1057.72 197.64Q1056.09 197.64 1055.10 196.69Q1054.12 195.74 1054.12 194.16L1054.12 186.41L1050.33 186.41L1050.33 184.44L1054.12 184.44L1054.12 180.72L1056.28 180.72L1056.28 184.44L1061.68 184.44L1061.68 186.41L1056.28 186.41L1056.28 194.16Q1056.28 194.83 1056.68 195.25Q1057.07 195.67 1057.72 195.67L1061.56 195.67" fill="white" fill-opacity="0.7"/>
<path d="M1070.78 197.88Q1068.50 197.88 1067.13 196.52Q1065.76 195.17 1065.76 192.84L1065.76 184.44L1067.92 184.44L1067.92 192.84Q1067.92 194.28 1068.69 195.13Q1069.46 195.98 1070.78 195.98Q1072.12 195.98 1072.90 195.13Q1073.68 194.28 1073.68 192.84L1073.68 184.44L1075.84 184.44L1075.84 192.84Q1075.84 195.17 1074.45 196.52Q1073.06 197.88 1070.78 197.88" fill="white" fill-opacity="0.7"/>
<path d="M1084.43 197.88Q1082.46 197.88 1081.28 196.56Q1080.09 195.24 1080.09 192.98L1080.09 189.12Q1080.09 186.84 1081.26 185.52Q1082.44 184.20 1084.43 184.20Q1085.92 184.20 1086.89 184.94Q1087.86 185.69 1088.06 186.96L1088.08 186.96L1088.03 183.96L1088.03 180.12L1090.19 180.12L1090.19 197.64L1088.03 197.64L1088.03 195.12L1088.01 195.12Q1087.84 196.42 1086.88 197.15Q1085.92 197.88 1084.43 197.88M1085.15 196.01Q1086.50 196.01 1087.26 195.17Q1088.03 194.33 1088.03 192.84L1088.03 189.24Q1088.03 187.75 1087.26 186.91Q1086.50 186.07 1085.15 186.07Q1083.78 186.07 1083.02 186.78Q1082.25 187.49 1082.25 189.12L1082.25 192.96Q1082.25 194.57 1083.02 195.29Q1083.78 196.01 1085.15 196.01" fill="white" fill-opacity="0.7"/>
<path d="M1099.60 197.88Q1097.27 197.88 1095.84 196.48Q1094.42 195.07 1094.42 192.60L1094.42 189.48Q1094.42 187.01 1095.84 185.60Q1097.27 184.20 1099.60 184.20Q1101.16 184.20 1102.32 184.82Q1103.49 185.45 1104.14 186.58Q1104.78 187.70 1104.78 189.24L1104.78 191.59L1096.53 191.59L1096.53 192.84Q1096.53 194.30 1097.37 195.16Q1098.21 196.01 1099.60 196.01Q1100.80 196.01 1101.58 195.54Q1102.36 195.07 1102.53 194.28L1104.69 194.28Q1104.47 195.94 1103.08 196.91Q1101.69 197.88 1099.60 197.88M1096.53 189.24L1096.53 189.91L1102.67 189.91L1102.67 189.24Q1102.67 187.68 1101.87 186.83Q1101.06 185.98 1099.60 185.98Q1098.14 185.98 1097.33 186.83Q1096.53 187.68 1096.53 189.24" fill="white" fill-opacity="0.7"/>
<path d="M1111.17 197.64L1109.01 197.64L1109.01 184.44L1111.17 184.44L1111.17 186.96L1111.19 186.96Q1111.36 185.64 1112.27 184.92Q1113.18 184.20 1114.70 184.20Q1116.69 184.20 1117.86 185.42Q1119.04 186.65 1119.04 188.76L1119.04 197.64L1116.88 197.64L1116.88 189.14Q1116.88 187.63 1116.12 186.83Q1115.37 186.02 1114.07 186.02Q1112.73 186.02 1111.95 186.86Q1111.17 187.70 1111.17 189.24" fill="white" fill-opacity="0.7"/>
<path d="M1133.56 197.64L1129.72 197.64Q1128.09 197.64 1127.10 196.69Q1126.12 195.74 1126.12 194.16L1126.12 186.41L1122.33 186.41L1122.33 184.44L1126.12 184.44L1126.12 180.72L1128.28 180.72L1128.28 184.44L1133.68 184.44L1133.68 186.41L1128.28 186.41L1128.28 194.16Q1128.28 194.83 1128.68 195.25Q1129.07 195.67 1129.72 195.67L1133.56 195.67" fill="white" fill-opacity="0.7"/>
<path d="M76.05 229.88Q74.01 229.88 72.81 228.74Q71.61 227.60 71.61 225.75Q71.61 224.53 72.16 223.62Q72.71 222.70 73.70 222.19Q74.68 221.67 75.95 221.67L80.03 221.67L80.03 220.64Q80.03 218.07 77.22 218.07Q75.98 218.07 75.21 218.53Q74.44 218.98 74.39 219.80L72.23 219.80Q72.35 218.24 73.68 217.22Q75.02 216.20 77.22 216.20Q79.62 216.20 80.91 217.35Q82.19 218.50 82.19 220.57L82.19 229.64L80.06 229.64L80.06 227.24L80.01 227.24Q79.82 228.46 78.78 229.17Q77.75 229.88 76.05 229.88M76.58 228.06Q78.16 228.06 79.10 227.29Q80.03 226.52 80.03 225.20L80.03 223.35L76.19 223.35Q75.14 223.35 74.48 223.99Q73.82 224.62 73.82 225.68Q73.82 226.78 74.55 227.42Q75.28 228.06 76.58 228.06" fill="white" fill-opacity="0.7"/>
<path d="M91.79 229.88Q89.39 229.88 87.95 228.54Q86.51 227.19 86.51 224.84L86.51 221.24Q86.51 218.89 87.95 217.54Q89.39 216.20 91.79 216.20Q94.07 216.20 95.48 217.42Q96.88 218.65 96.95 220.76L94.79 220.76Q94.72 219.49 93.93 218.80Q93.14 218.12 91.79 218.12Q90.38 218.12 89.52 218.92Q88.67 219.73 88.67 221.22L88.67 224.84Q88.67 226.33 89.52 227.14Q90.38 227.96 91.79 227.96Q93.14 227.96 93.93 227.26Q94.72 226.57 94.79 225.32L96.95 225.32Q96.88 227.43 95.48 228.66Q94.07 229.88 91.79 229.88" fill="white" fill-opacity="0.7"/>
<path d="M106.19 229.88Q103.79 229.88 102.35 228.54Q100.91 227.19 100.91 224.84L100.91 221.24Q100.91 218.89 102.35 217.54Q103.79 216.20 106.19 216.20Q108.47 216.20 109.88 217.42Q111.28 218.65 111.35 220.76L109.19 220.76Q109.12 219.49 108.33 218.80Q107.54 218.12 106.19 218.12Q104.78 218.12 103.92 218.92Q103.07 219.73 103.07 221.22L103.07 224.84Q103.07 226.33 103.92 227.14Q104.78 227.96 106.19 227.96Q107.54 227.96 108.33 227.26Q109.12 226.57 109.19 225.32L111.35 225.32Q111.28 227.43 109.88 228.66Q108.47 229.88 106.19 229.88" fill="white" fill-opacity="0.7"/>
<path d="M120.40 229.88Q118.07 229.88 116.64 228.48Q115.22 227.07 115.22 224.60L115.22 221.48Q115.22 219.01 116.64 217.60Q118.07 216.20 120.40 216.20Q121.96 216.20 123.12 216.82Q124.29 217.45 124.94 218.58Q125.58 219.70 125.58 221.24L125.58 223.59L117.33 223.59L117.33 224.84Q117.33 226.30 118.17 227.16Q119.01 228.01 120.40 228.01Q121.60 228.01 122.38 227.54Q123.16 227.07 123.33 226.28L125.49 226.28Q125.27 227.94 123.88 228.91Q122.49 229.88 120.40 229.88M117.33 221.24L117.33 221.91L123.47 221.91L123.47 221.24Q123.47 219.68 122.67 218.83Q121.86 217.98 120.40 217.98Q118.94 217.98 118.13 218.83Q117.33 219.68 117.33 221.24" fill="white" fill-opacity="0.7"/>
<path d="M135.33 229.83L134.27 229.83Q132.06 229.83 130.85 228.84Q129.64 227.84 129.64 226.02L131.80 226.02Q131.80 226.93 132.45 227.44Q133.10 227.96 134.27 227.96L135.33 227.96Q136.53 227.96 137.19 227.43Q137.85 226.90 137.85 225.94Q137.85 224.24 136.29 224.02L132.64 223.50Q131.30 223.30 130.55 222.38Q129.81 221.46 129.81 219.94Q129.81 218.22 131 217.23Q132.18 216.25 134.27 216.25L135.33 216.25Q137.25 216.25 138.46 217.20Q139.67 218.14 139.77 219.68L137.58 219.68Q137.54 218.98 136.92 218.53Q136.31 218.07 135.33 218.07L134.27 218.07Q133.17 218.07 132.54 218.58Q131.92 219.08 131.92 219.94Q131.92 221.34 133.19 221.53L136.60 222.01Q139.96 222.49 139.96 225.94Q139.96 227.79 138.75 228.81Q137.54 229.83 135.33 229.83" fill="white" fill-opacity="0.7"/>
<path d="M149.73 229.83L148.67 229.83Q146.46 229.83 145.25 228.84Q144.04 227.84 144.04 226.02L146.20 226.02Q146.20 226.93 146.85 227.44Q147.50 227.96 148.67 227.96L149.73 227.96Q150.93 227.96 151.59 227.43Q152.25 226.90 152.25 225.94Q152.25 224.24 150.69 224.02L147.04 223.50Q145.70 223.30 144.95 222.38Q144.21 221.46 144.21 219.94Q144.21 218.22 145.40 217.23Q146.58 216.25 148.67 216.25L149.73 216.25Q151.65 216.25 152.86 217.20Q154.07 218.14 154.17 219.68L151.98 219.68Q151.94 218.98 151.32 218.53Q150.71 218.07 149.73 218.07L148.67 218.07Q147.57 218.07 146.94 218.58Q146.32 219.08 146.32 219.94Q146.32 221.34 147.59 221.53LNaN 222.01Q154.36 222.49 154.36 225.94Q154.36 227.79 153.15 228.81Q151.94 229.83 149.73 229.83" fill="white" fill-opacity="0.7"/>
<path d="M163.60 229.88Q162.71 229.88 162.17 229.35Q161.63 228.82 161.63 227.98Q161.63 227.10 162.17 226.54Q162.71 225.99 163.60 225.99Q164.49 225.99 165.03 226.54Q165.57 227.10 165.57 227.98Q165.57 228.82 165.03 229.35Q164.49 229.88 163.60 229.88" fill="white" fill-opacity="0.7"/>
<path d="M76.11 136.06L66.42 136.06L84.56 65.98L97.14 65.98L115.18 136.06L105.49 136.06L101.07 117.82L80.53 117.82L76.11 136.06M87.54 88.92L82.45 109.95L99.15 109.95L94.16 89.02Q92.72 83.26 91.86 79.23Q90.99 75.20 90.80 73.76Q90.61 75.20 89.74 79.23Q88.88 83.26 87.54 88.92M137.55 136.06L128.05 136.06L128.05 65.98L150.80 65.98Q157.52 65.98 162.42 68.57Q167.31 71.16 170 75.82Q172.69 80.48 172.69 86.91Q172.69 93.24 170 97.90Q167.31 102.56 162.37 105.15Q157.42 107.74 150.80 107.74L137.55 107.74L137.55 136.06M137.55 74.43L137.55 99.29L150.80 99.29Q156.37 99.29 159.63 95.88Q162.90 92.48 162.90 86.91Q162.90 81.24 159.63 77.84Q156.37 74.43 150.80 74.43L137.55 74.43M225.10 136.06L186.90 136.06L186.90 127.42L201.20 127.42L201.20 74.62L186.90 74.62L186.90 65.98L225.10 65.98L225.10 74.62L210.80 74.62L210.80 127.42L225.10 127.42L225.10 136.06M263.98 137.02Q253.62 137.02 247.47 131.60Q241.33 126.17 241.33 116.67L250.83 116.67Q250.83 122.24 254.38 125.40Q257.94 128.57 263.98 128.57Q269.74 128.57 273.15 125.36Q276.56 122.14 276.56 116.76Q276.56 112.73 274.35 109.71Q272.14 106.68 268.11 105.63L257.74 102.84Q250.93 100.92 246.94 95.88Q242.96 90.84 242.96 83.93Q242.96 78.27 245.50 74Q248.05 69.72 252.66 67.37Q257.26 65.02 263.31 65.02Q269.46 65.02 274.11 67.37Q278.77 69.72 281.36 73.95Q283.95 78.17 283.95 83.74L274.54 83.74Q274.54 79.13 271.42 76.25Q268.30 73.37 263.31 73.37Q258.32 73.37 255.30 76.25Q252.27 79.13 252.27 83.74Q252.27 87.48 254.29 90.03Q256.30 92.57 259.95 93.63L270.61 96.51Q277.81 98.43 281.84 103.85Q285.87 109.28 285.87 116.76Q285.87 122.91 283.18 127.47Q280.50 132.03 275.55 134.52Q270.61 137.02 263.98 137.02M342.51 136.06L301.71 136.06L301.71 65.98L342.51 65.98L342.51 74.52L311.12 74.52L311.12 95.36L339.15 95.36L339.15 103.61L311.12 103.61L311.12 127.52L342.51 127.52L342.51 136.06M383.60 136.06L374.10 136.06L374.10 74.62L355.09 74.62L355.09 65.98L402.51 65.98L402.51 74.62L383.60 74.62L383.60 136.06M436.40 137.02Q426.51 137.02 421.18 131.55Q415.86 126.08 415.86 116.67L415.86 65.98L425.36 65.98L425.36 116.67Q425.36 122.24 428.10 125.40Q430.83 128.57 436.40 128.57Q441.87 128.57 444.70 125.40Q447.54 122.24 447.54 116.67L447.54 65.98L457.04 65.98L457.04 116.67Q457.04 126.17 451.71 131.60Q446.38 137.02 436.40 137.02M551.98 137.02Q542.29 137.02 536.58 131.60Q530.86 126.17 530.86 116.67L530.86 85.28Q530.86 75.87 536.58 70.44Q542.29 65.02 551.98 65.02Q561.58 65.02 567.30 70.49Q573.01 75.96 573.01 85.28L563.50 85.28Q563.50 79.61 560.43 76.54Q557.36 73.47 551.98 73.47Q546.51 73.47 543.44 76.54Q540.37 79.61 540.37 85.28L540.37 116.67Q540.37 122.43 543.44 125.50Q546.51 128.57 551.98 128.57Q557.36 128.57 560.43 125.50Q563.50 122.43 563.50 116.67L563.50 107.55L549.87 107.55L549.87 99.10L573.01 99.10L573.01 116.67Q573.01 126.08 567.30 131.55Q561.58 137.02 551.98 137.02M609.20 137.02Q599.60 137.02 594.03 131.45Q588.46 125.88 588.46 115.71L588.46 86.24Q588.46 76.16 594.03 70.59Q599.60 65.02 609.20 65.02Q618.80 65.02 624.37 70.54Q629.94 76.06 629.94 86.24L629.94 115.71Q629.94 125.88 624.37 131.45Q618.80 137.02 609.20 137.02M609.20 128.57Q614.58 128.57 617.50 125.50Q620.43 122.43 620.43 116.67L620.43 85.28Q620.43 79.61 617.55 76.54Q614.67 73.47 609.20 73.47Q603.73 73.47 600.85 76.54Q597.97 79.61 597.97 85.28L597.97 116.67Q597.97 122.43 600.90 125.50Q603.82 128.57 609.20 128.57M673.14 136.06L660.37 136.06L642.42 65.98L652.21 65.98L663.82 113.21Q664.98 117.72 665.79 121.90Q666.61 126.08 666.99 128.28Q667.28 126.08 668.19 121.85Q669.10 117.63 670.16 113.12L681.39 65.98L691.18 65.98L673.14 136.06M780.46 136.06L761.65 136.06L761.65 65.98L780.46 65.98Q787.28 65.98 792.32 68.62Q797.36 71.26 800.14 76.01Q802.93 80.76 802.93 87.20L802.93 114.75Q802.93 121.18 800.14 125.98Q797.36 130.78 792.32 133.42Q787.28 136.06 780.46 136.06M771.15 74.43L771.15 127.61L780.46 127.61Q786.51 127.61 789.97 124.16Q793.42 120.70 793.42 114.75L793.42 87.20Q793.42 81.24 789.97 77.84Q786.51 74.43 780.46 74.43L771.15 74.43M839.98 137.02Q830.29 137.02 824.58 131.60Q818.86 126.17 818.86 116.67L818.86 85.28Q818.86 75.87 824.58 70.44Q830.29 65.02 839.98 65.02Q849.58 65.02 855.30 70.49Q861.01 75.96 861.01 85.28L851.50 85.28Q851.50 79.61 848.43 76.54Q845.36 73.47 839.98 73.47Q834.51 73.47 831.44 76.54Q828.37 79.61 828.37 85.28L828.37 116.67Q828.37 122.43 831.44 125.50Q834.51 128.57 839.98 128.57Q845.36 128.57 848.43 125.50Q851.50 122.43 851.50 116.67L851.50 107.55L837.87 107.55L837.87 99.10L861.01 99.10L861.01 116.67Q861.01 126.08 855.30 131.55Q849.58 137.02 839.98 137.02M918.51 136.06L877.71 136.06L877.71 65.98L918.51 65.98L918.51 74.52L887.12 74.52L887.12 95.36L915.15 95.36L915.15 103.61L887.12 103.61L887.12 127.52L918.51 127.52L918.51 136.06M955.57 137.02Q945.87 137.02 940.16 131.60Q934.45 126.17 934.45 116.67L934.45 85.28Q934.45 75.87 940.16 70.44Q945.87 65.02 955.57 65.02Q965.17 65.02 970.88 70.49Q976.59 75.96 976.59 85.28L967.09 85.28Q967.09 79.61 964.02 76.54Q960.94 73.47 955.57 73.47Q950.10 73.47 947.02 76.54Q943.95 79.61 943.95 85.28L943.95 116.67Q943.95 122.43 947.02 125.50Q950.10 128.57 955.57 128.57Q960.94 128.57 964.02 125.50Q967.09 122.43 967.09 116.67L976.59 116.67Q976.59 126.08 970.88 131.55Q965.17 137.02 955.57 137.02M1033.71 136.06L992.91 136.06L992.91 65.98L1033.71 65.98L1033.71 74.52L1002.32 74.52L1002.32 95.36L1030.35 95.36L1030.35 103.61L1002.32 103.61L1002.32 127.52L1033.71 127.52L1033.71 136.06M1059.15 136.06L1049.74 136.06L1049.74 65.98L1071.44 65.98Q1077.87 65.98 1082.67 68.52Q1087.47 71.07 1090.16 75.63Q1092.85 80.19 1092.85 86.33Q1092.85 93.44 1089.25 98.52Q1085.65 103.61 1079.70 105.72L1093.81 136.06L1083.34 136.06LNaN 106.78L1059.15 106.78L1059.15 136.06M1059.15 74.43L1059.15 98.33L1071.44 98.33Q1076.82 98.33 1079.94 95.07Q1083.06 91.80 1083.06 86.43Q1083.06 80.96 1079.89 77.69Q1076.72 74.43 1071.44 74.43L1059.15 74.43M1132.40 136.06L1122.90 136.06L1122.90 74.62L1103.89 74.62L1103.89 65.98L1151.31 65.98L1151.31 74.62L1132.40 74.62L1132.40 136.06M1190 136.06L1180.50 136.06L1180.50 74.62L1161.49 74.62L1161.49 65.98L1208.91 65.98L1208.91 74.62L1190 74.62L1190 136.06M1231.18 136.06L1222.26 136.06L1222.26 65.98L1234.54 65.98L1255.47 125.12Q1255.18 122.62 1254.94 118.92Q1254.70 115.23 1254.56 111.24Q1254.42 107.26 1254.42 103.71L1254.42 65.98L1263.44 65.98L1263.44 136.06L1251.06 136.06L1230.32 76.92Q1230.51 79.42 1230.70 83.02Q1230.90 86.62 1231.04 90.56Q1231.18 94.49 1231.18 97.95" fill="url(#paint2_linear_0_1)"/>
<g id="Group 1">
<rect id="Rectangle 1" x="26" y="168" width="12" height="184" rx="5" fill="url(#paint3_linear_0_1)" fill-opacity="0.9"/>
</g>
<g id="Group 1_2">
<rect id="Rectangle 2" x="26" y="38" width="12" height="119" rx="5" fill="url(#paint4_linear_0_1)" fill-opacity="0.9"/>
</g>
<ellipse id="Ellipse 1" cx="148.5" cy="573" rx="215.5" ry="214" fill="url(#paint5_linear_0_1)" fill-opacity="0.4"/>
<rect id="Rectangle 3" x="1229" y="48" width="300" height="300" rx="25" fill="#FFFBFB" fill-opacity="0.9"/>
<g id="placeholder-logo"><g transform="translate(1229,48) translate(0.0,60.0) scale(1.2000)"><g fill="#666666">
  <path d="m88.05,27.65c-3.15,4 -3.2,51.2 -0.05,54.35c2.75,2.75 71.7,3.15 74.45,0.45c2.85,-2.9 2.3,-53.85 -0.65,-55.9c-1.95,-1.35 -7.15,-1.55 -36.95,-1.55l-34.7,0l-2.1,2.65zm69.45,3.35c0.65,0 1,8.6 1,23.75l0,23.75l-33,0l-33,0l-0.25,-23c-0.15,-12.6 -0.1,-23.45 0.15,-24.1c0.35,-0.85 8.9,-1.05 32.25,-0.75c17.55,0.2 32.3,0.35 32.85,0.35z"/>
  <path d="m99.15,37.3c-6.85,7.35 4.25,17.35 11.4,10.25c1.35,-1.35 2.45,-3.65 2.45,-5.05c0,-6.45 -9.35,-9.95 -13.85,-5.2z"/>
  <path d="m135,42.5c-0.7,0.85 -5.25,5.15 -10.1,9.6l-8.85,8.1l-3.2,-3.2l-3.15,-3.15l-6.35,6.3c-5.55,5.5 -6.35,6.75 -6.35,10.05l0,3.8l28.5,0l28.5,0l0,-8.6l0,-8.55l-8.15,-7.7c-9.35,-8.85 -9.15,-8.7 -10.85,-6.65zm7.25,15.2c0.95,0.9 1.75,2.9 1.75,4.45c6.35,-5.05 4.75,-7.15 4.9,-11.55c0.95,0 0,0 0,0l-6.65,7.1z"/>
  <path d="m53.65,110.75c0.1,4.8 0.45,8.65 0.75,8.5c0.35,-0.15 1.3,-0.25 2.1,-0.25c1.1,0 1.5,-1.2 1.5,-4.75l0,-4.75l3.25,5c4.9,7.5 6.2,6.75 6.55,-3.75c0.25,-8.15 0.15,-8.75 -1.7,-8.75c-1.65,0 -2.05,0.8 -2.3,4.75l-0.3,4.75l-2.8,-4.75c-4.85,-8.25 -7.25,-6.9 -7.05,4z"/>
  <path d="m91,108.9c0,9.65 0.3,10.1 6.1,10.1c5.8,0 7.15,-2.65 1.65,-3.2l-3.25,-0.3l-0.3,-6.75c-0.25,-5.95 -0.55,-6.75 -2.25,-6.75c-1.75,0 -1.95,0.7 -1.95,6.9z"/>
  <path d="m151,102.45c0,0.25 1,2.15 2.25,4.2c1.2,2.1 2.45,5.8 2.75,8.25c0.65,5.9 4,6.95 4,1.25c0.05,-2.1 1.25,-5.85 2.95,-8.9l2.9,-5.25l-2.5,0c-1.8,0 -2.8,0.85 -3.75,3.1l-1.3,3.05l-1.25,-3.05c-1.1,-2.6 -6.05,-4.8 -6.05,-2.65z"/>
  <path d="m191,107.45c0,9.05 3.4,8.85 4.25,-0.2c0.45,-5 0.35,-5.25 -1.9,-5.25c-2.2,0 -2.35,0.4 -2.35,5.45z"/>
  <path d="m180.8,104.75c-1.3,5.35 0.65,13.6 3.45,14.35c2.3,0.6 2.75,0.4 2.75,-1.2c0,-1.05 -0.45,-1.9 -1,-1.9c-0.55,0 -1,-1.6 -1,-3.5c0,-1.95 0.45,-3.5 1,-3.5c0.55,0 1,-0.7 1,-1.5c0,-0.85 -0.45,-1.5 -1,-1.5c-0.55,0 -1,-0.7 -1,-1.5c0,-2.1 -3.65,-1.9 -4.2,0.25z"/>
  <path d="m71.55,106.55c-2.2,2.25 -2.05,9.7 0.3,11.8c4.5,4.1 10.15,0.75 10.15,-6.1c0,-4.85 -2,-7.25 -6,-7.25c-1.55,0 -3.55,0.7 -4.45,1.55zm6.25,5.8c0.25,3.05 0,3.65 -1.6,3.65c-2.3,0 -3.25,-2.65 -2.05,-5.85c1.25,-3.35 3.3,-2.1 3.65,2.2z"/>
  <path d="m105.75,106.1c-2.5,1.45 -2.45,9.95 0.1,12.25c4.3,3.9 10.15,0.35 10.15,-6.2c0,-6 -5.15,-9.05 -10.25,-6.05zm6.05,6.25c0.25,3.05 0,3.65 -1.6,3.65c-2.3,0 -3.25,-2.65 -2.05,-5.85c1.25,-3.35 3.3,-2.1 3.65,2.2z"/>
  <path d="m119.2,106.2c-3.8,3.8 -0.4,12.55 4.4,11.35c1.9,-0.45 2.45,-0.3 2.15,0.65c-0.25,0.7 -1.55,1.2 -2.85,1.1c-4.05,-0.3 -5.35,0.45 -3.85,2.25c0.85,1.05 2.6,1.45 5.35,1.25l4.1,-0.3l0.3,-8.75l0.3,-8.75l-4.35,0c-2.4,0 -4.9,0.55 -5.55,1.2zm6.6,4.45c0.4,2.85 -2.15,4.85 -3.75,2.95c-0.9,-1.1 -0.9,-2 -0.05,-3.6c1.35,-2.5 3.4,-2.15 3.8,0.65z"/>
  <path d="m133.55,106.55c-2.2,2.25 -2.05,9.7 0.3,11.8c4.5,4.1 10.15,0.75 10.15,-6.1c0,-4.85 -2,-7.25 -6,-7.25c-1.55,0 -3.55,0.7 -4.45,1.55zm6.25,5.8c0.25,3.05 0,3.65 -1.6,3.65c-2.3,0 -3.25,-2.65 -2.05,-5.85c1.25,-3.35 3.3,-2.1 3.65,2.2z"/>
  <path d="m167.65,106.85c-3.9,4.3 -0.75,13.15 4.7,13.15c2.4,0 5.65,-2.75 5.65,-4.85c0,-1.4 -2.65,-1.55 -3.5,-0.15c-0.95,1.55 -4.5,1.15 -4.5,-0.5c0,-1.1 1.1,-1.5 4,-1.5c3.15,0 4,-0.35 4,-1.8c0,-5.3 -6.85,-8.25 -10.35,-4.35z"/>
  <path d="m191,117.5c0,2.15 0.4,2.6 2.25,2.3c1.5,-0.2 2.25,-1 2.25,-2.3c0,-1.3 -0.75,-2.1 -2.25,-2.3c-1.85,-0.3 -2.25,0.15 -2.25,2.3z"/>
 </g></g></g>
</g>
<defs>
<linearGradient id="paint0_linear_0_1" x1="0" y1="198" x2="1584" y2="198" gradientUnits="userSpaceOnUse">
<stop stop-color="#3D052C"/>
<stop offset="1"/>
</linearGradient>
<linearGradient id="paint1_linear_0_1" x1="323" y1="-224" x2="323" y2="352" gradientUnits="userSpaceOnUse">
<stop stop-color="#28F6F2" stop-opacity="0.4"/>
<stop offset="1" stop-color="#17908E" stop-opacity="0.7"/>
</linearGradient>
<linearGradient id="paint2_linear_0_1" x1="148.5" y1="38" x2="148.5" y2="140" gradientUnits="userSpaceOnUse">
<stop stop-color="white"/>
<stop offset="1" stop-color="#999999"/>
</linearGradient>
<linearGradient id="paint3_linear_0_1" x1="38" y1="260" x2="26" y2="260" gradientUnits="userSpaceOnUse">
<stop stop-color="#D9D9D9"/>
<stop offset="1" stop-color="#737373"/>
</linearGradient>
<linearGradient id="paint4_linear_0_1" x1="38" y1="97.5" x2="26" y2="97.5" gradientUnits="userSpaceOnUse">
<stop stop-color="#D9D9D9"/>
<stop offset="1" stop-color="#737373"/>
</linearGradient>
<linearGradient id="paint5_linear_0_1" x1="27.5" y1="434.5" x2="148.5" y2="787" gradientUnits="userSpaceOnUse">
<stop stop-color="#2E21BC"/>
<stop offset="1" stop-color="#150F56"/>
</linearGradient>
<clipPath id="clip0_0_1">
<rect width="1584" height="396" fill="white"/>
</clipPath>
</defs>
</svg>
